<svg viewBox="0 0 26 36" fill="none" xmlns="http://www.w3.org/2000/svg">
	<path d="M1.27 9.98H8.67" stroke="currentColor" stroke-width="0.74" stroke-miterlimit="10" stroke-linecap="round"/>
	<path d="M11.73 9.98H13.95" stroke="currentColor" stroke-width="0.74" stroke-miterlimit="10" stroke-linecap="round"/>
	<path d="M17.02 28.73H24.42" stroke="currentColor" stroke-width="0.74" stroke-miterlimit="10" stroke-linecap="round"/>
	<path d="M11.73 28.73H13.95" stroke="currentColor" stroke-width="0.74" stroke-miterlimit="10" stroke-linecap="round"/>
	<path d="M1 3.98H24.68" stroke="currentColor" stroke-width="0.74" stroke-miterlimit="10" stroke-linecap="round"/>
	<path d="M1 34.73H24.68" stroke="currentColor" stroke-width="0.74" stroke-miterlimit="10" stroke-linecap="round"/>
	<path d="M21.49 4.18C21.897 4.18 24.45 6.77 24.45 10.1V28.6C24.45 31.93 21.897 34.52 21.49 34.52" stroke="currentColor" stroke-width="0.74" stroke-miterlimit="10" stroke-linecap="round"/>
	<path d="M4.20001 4.18C3.79301 4.18 1.24001 6.77 1.24001 10.1V28.6C1.24001 31.93 3.79301 34.52 4.20001 34.52" stroke="currentColor" stroke-width="0.74" stroke-miterlimit="10" stroke-linecap="round"/>
	<path d="M5.74001 3.96V2.48C5.74001 1.666 6.40601 1 7.22001 1C8.03401 1 8.70001 1.666 8.70001 2.48V3.96" stroke="currentColor" stroke-width="0.74" stroke-miterlimit="10" stroke-linecap="round"/>
	<path d="M18.76 14.17H6.92C6.106 14.17 5.44 14.836 5.44 15.65V16.39V22.31V23.05C5.44 23.864 6.106 24.53 6.92 24.53H18.76C19.574 24.53 20.24 23.864 20.24 23.05V22.31V16.39V15.65C20.24 14.836 19.574 14.17 18.76 14.17ZM12.359 22.051C12.359 22.125 12.285 22.199 12.211 22.199C12.211 22.199 10.99 22.384 10.213 21.607C9.51 20.904 9.658 19.609 9.658 19.609C9.658 19.535 9.732 19.461 9.806 19.461C9.806 19.461 11.064 19.313 11.804 20.016C12.544 20.793 12.359 22.051 12.359 22.051ZM12.951 20.053C12.877 20.09 12.803 20.127 12.729 20.053C12.729 20.053 11.73 19.313 11.73 18.24C11.73 17.241 12.729 16.427 12.729 16.427C12.803 16.39 12.877 16.39 12.951 16.427C12.951 16.427 13.95 17.241 13.95 18.24C13.95 19.313 12.951 20.053 12.951 20.053ZM15.504 21.607C14.727 22.384 13.506 22.199 13.506 22.199C13.432 22.199 13.358 22.125 13.358 22.051C13.358 22.051 13.173 20.83 13.95 20.053C14.653 19.35 15.948 19.498 15.948 19.498C16.022 19.498 16.096 19.572 16.096 19.646C16.059 19.609 16.207 20.904 15.504 21.607Z" fill="#FFBD1A"/>
</svg>
